<svg xmlns="http://www.w3.org/2000/svg" viewBox="0 0 316.9 339.4"><g id="iconblack"><path d="M303.4,245.9c6-15.7-.5-37-18.8-60.9-3.5-4.6-7.4-9.1-11.6-13.7,4.2-4.5,8.1-9.1,11.6-13.6,20-26.1,26-49.3,16.8-65.2s-32.2-22.3-64.8-18c-5.7.8-11.6,1.8-17.7,3.2q-2.7-8.9-6-16.8L211.7,58a20.3,20.3,0,0,0-9.2-38.4,20,20,0,0,0-13,4.8c-7.7-7-16-10.7-24.6-10.7-18.4,0-35.4,16.8-48,47.2-2.2,5.3-4.2,10.9-6.1,16.8-6-1.4-11.9-2.4-17.6-3.2-32.6-4.3-55.6,2.1-64.8,18s-3.2,39.1,16.8,65.2c3.5,4.5,7.4,9.1,11.6,13.6-4.2,4.6-8.1,9.1-11.6,13.7s-5.2,7.1-7.4,10.5A20.2,20.2,0,0,0,9.7,214.2a20.2,20.2,0,0,0,14.5,19.4,32.7,32.7,0,0,0,4.2,16.5c7.3,12.7,23.4,19.3,46.1,19.3a139,139,0,0,0,18.7-1.3,168,168,0,0,0,17.6-3.2c1.9,5.9,3.9,11.6,6.1,16.9,12.6,30.4,29.6,47.1,48,47.1s35.4-16.7,48-47.1c2.2-5.3,4.2-11,6-16.9a174.6,174.6,0,0,0,17.7,3.2,137.6,137.6,0,0,0,18.6,1.3,86.1,86.1,0,0,0,14.9-1.1,20.2,20.2,0,0,0,38.4-9A20.1,20.1,0,0,0,303.4,245.9ZM237.3,80.5A125.1,125.1,0,0,1,255,79.2c20.4,0,35.1,5.7,41.2,16.3C304,109,298,130.3,279.8,154c-3.3,4.3-7,8.7-10.9,13A302.2,302.2,0,0,0,230,133.7a306.9,306.9,0,0,0-9.3-50.2C226.4,82.2,231.9,81.2,237.3,80.5ZM195.4,224.1c-10.1,5.9-20.4,11.1-30.5,15.8-10.2-4.7-20.4-9.9-30.5-15.8s-19.8-12-28.9-18.5c-1-11.1-1.6-22.6-1.6-34.3s.6-23.2,1.6-34.3c9.1-6.4,18.8-12.6,28.9-18.5s20.3-11.1,30.5-15.7c10.1,4.6,20.4,9.9,30.5,15.7s19.8,12.1,28.9,18.5c1,11.1,1.6,22.6,1.6,34.3s-.6,23.2-1.6,34.3C215.2,212.1,205.5,218.3,195.4,224.1Zm28-10.6a273.9,273.9,0,0,1-8.6,44.3,287.9,287.9,0,0,1-42.6-14.7c8.7-4.2,17.5-8.8,26.2-13.8S215.4,219,223.4,213.5Zm-65.8,29.6A287.9,287.9,0,0,1,115,257.8a273.9,273.9,0,0,1-8.6-44.3c7.9,5.5,16.3,10.8,25,15.8S148.9,238.9,157.6,243.1ZM99.1,200.9A287.7,287.7,0,0,1,65,171.3a297.2,297.2,0,0,1,34.1-29.6c-.8,9.7-1.2,19.6-1.2,29.6S98.3,191.3,99.1,200.9Zm32.3-87.6c-8.7,5-17.1,10.3-25,15.8A272.6,272.6,0,0,1,115,84.9a287,287,0,0,1,42.6,14.6C148.9,103.7,140.1,108.3,131.4,113.3Zm40.8-13.8a287,287,0,0,1,42.6-14.6,272.6,272.6,0,0,1,8.6,44.2c-8-5.5-16.3-10.8-25-15.8S180.9,103.7,172.2,99.5Zm58.5,42.2a287.6,287.6,0,0,1,34,29.6,278.7,278.7,0,0,1-34,29.6c.8-9.6,1.2-19.5,1.2-29.6S231.5,151.4,230.7,141.7ZM122.4,63.1c11.5-27.6,26.9-43.4,42.5-43.4,7,0,14,3.2,20.6,9.3a20.2,20.2,0,0,0,17,31.1,18.7,18.7,0,0,0,3.4-.3l1.5,3.3c2,5.1,3.9,10.4,5.7,16a294.4,294.4,0,0,0-48.2,17.1,297.7,297.7,0,0,0-48.2-17.1C118.4,73.5,120.4,68.2,122.4,63.1ZM50,154c-18.2-23.7-24.2-45-16.4-58.5,6.1-10.6,20.8-16.3,41.2-16.3a122.7,122.7,0,0,1,17.6,1.3c5.4.7,11,1.7,16.7,3a296.6,296.6,0,0,0-9.3,50.2A295.6,295.6,0,0,0,60.9,167C57,162.7,53.3,158.3,50,154ZM92.4,262.2c-29.6,3.9-51-1.6-58.8-15.1a26.3,26.3,0,0,1-3.3-12.7,20.2,20.2,0,0,0,12.6-35.8c2.1-3.2,4.5-6.6,7.1-10s7-8.6,10.9-12.9a302.9,302.9,0,0,0,38.9,33.2,297.8,297.8,0,0,0,9.3,50.3C103.4,260.4,97.8,261.5,92.4,262.2Zm115,17.3c-11.5,27.6-26.9,43.4-42.5,43.4s-31-15.8-42.5-43.4c-2-5-4-10.4-5.7-16a296.9,296.9,0,0,0,48.2-17,293.6,293.6,0,0,0,48.2,17C211.3,269.1,209.4,274.5,207.4,279.5Zm29.9-17.3c-5.4-.7-10.9-1.8-16.6-3a308.1,308.1,0,0,0,9.3-50.3,309.9,309.9,0,0,0,38.9-33.2c3.9,4.3,7.6,8.6,10.9,12.9,16,20.8,22.5,39.8,18.6,53.2A20.3,20.3,0,0,0,268,259.3a16.6,16.6,0,0,0,.3,3.2C259.5,263.8,249,263.7,237.3,262.2Z"/><path d="M165,139.2a30.4,30.4,0,1,0,30.4,30.4A30.4,30.4,0,0,0,165,139.2Z"/></g></svg>