<svg xmlns="http://www.w3.org/2000/svg" viewBox="0 0 419.8 409.1"><g id="Capa_5" data-name="Capa 5"><path d="M350.9,359.5h10.7v10.4H72.6V359.6H83.1v-4.3q0-54.2-.1-108.5c0-2.4.6-3.8,2.9-4.8,5.5-2.5,10.8-5.4,16.2-8a3.6,3.6,0,0,0,2.5-3.8q-.1-73.8,0-147.6a3.9,3.9,0,0,0-2.3-3.9,15.3,15.3,0,0,1-8.5-14.1V53.8a15.8,15.8,0,0,1,15.9-15.9H260.1a15.8,15.8,0,0,1,15.9,16V64.6c0,6.5-3,11.2-8.6,14.4a4.4,4.4,0,0,0-2,2.9c-.1,17-.1,34.1-.1,51.2,0,.3.2.6.3,1.2h85.3Zm-139-105.9V134.2h42.5V81h-139V227.3c4.6-2.3,9-4.3,13.2-6.6a5.3,5.3,0,0,1,5.2-.2c18.1,7.8,36.3,15.4,54.4,23.1Zm64.3,63.1h32.1v42.5h31.8V145.3H222.4v34.5q0,37.6.1,75.3c0,1.1.2,2.9.8,3.2,4.6,1.7,8.8,4.7,14.1,4.7h92v43H276.2Zm-10.9,42.5v-3.5c0-21.4-.1-42.9.1-64.3,0-2.7-.9-3.8-3.3-4.8L149.6,239l-12.7-5.2V359.1h10.6V306h42.9v53.2h21.4V306.1h42.9v53.1Zm-171.5-.1h32V234.4l-3.1,1.5c-8.7,4.3-17.3,8.7-26,12.9a4.5,4.5,0,0,0-3,4.8q.1,51,.1,102.1ZM184.9,70h73.6c4.7,0,6.7-2,6.8-6.7V56.9c0-6.7-1.5-8.3-8.2-8.3H110.5c-3.7.2-5.8,2.2-6,5.9s0,4.7,0,7c0,7,1.5,8.5,8.4,8.5ZM318.8,273.8H259.9c4.5,2,8,3.9,11.8,5s4.8,3.1,4.4,6.8a71.8,71.8,0,0,0-.1,9.3h42.8ZM179.3,359.3V316.8h-21v42.5Zm64.3-.1V316.8h-21v42.4Zm32.6,0h21V327.4h-21Z"/><path d="M51.1,359.5H61.4v10.4H51.1Z"/><path d="M383,359.6v10.3H372.7V359.6Z"/><path d="M200.7,123.5H169V91.8h31.7Zm-21-21.2v10.4H190V102.3Z"/><path d="M243.6,123.5H211.9V91.7h31.7Zm-10.7-10.8V102.4H222.6v10.3Z"/><path d="M157.9,166.3H126.1V134.6h31.8Zm-10.8-10.7V145.2H136.9v10.4Z"/><path d="M200.7,166.3H169V134.6h31.7Zm-10.6-10.7V145.3H179.8v10.3Z"/><path d="M158,177.4v31.7H126.2V177.4Zm-21.1,10.7v10.3h10.3V188.1Z"/><path d="M200.8,177.4v31.8H169.1V177.4Zm-10.7,10.7H179.8v10.3h10.3Z"/><path d="M126.1,123.4V91.7h31.7v31.7Zm21.1-10.7V102.4H136.8v10.3Z"/><path d="M329.5,209.6V252H233.4V209.6ZM244,241.3h74.6V220.2H244Z"/><path d="M329.4,156v42.5h-96V156Zm-10.7,10.7H244.1v21h74.6Z"/><path d="M230,282.8l-4.2,10L167.2,268l4.3-10Z"/><path d="M149.5,248.7l10.8,4.6c-1.4,3.4-2.7,6.5-4.2,9.9l-10.8-4.5C146.7,255.3,148,252.1,149.5,248.7Z"/></g></svg>