<svg xmlns="http://www.w3.org/2000/svg" viewBox="0 0 316.9 323"><g id="iconblack"><path d="M19.5,152.3c.6-4.1,1-8.3,1.7-12.4A138.6,138.6,0,0,1,44.7,81.7c2.1-3.1,5.3-4,7.9-2.3s3.4,5.1,1.2,8.4a132.9,132.9,0,0,0-16,31.7A130.4,130.4,0,0,0,43,216.9c3.1,6.5,7,12.7,10.6,19.1a24.6,24.6,0,0,1,18.2-1.2c9.3,3,16.1,13.3,15.6,22.9a23.4,23.4,0,0,1-19.7,21.8c-9.5,1.2-17.2-2.1-22.6-10s-5.4-16.3-.6-24.6c1-1.8.4-2.8-.5-4.1A131.9,131.9,0,0,1,24,197c-1.9-7.8-2.7-15.9-4-23.8-.2-1-.3-1.9-.5-2.9ZM76.3,256.7a12.1,12.1,0,0,0-12-12.2,12.3,12.3,0,0,0-12.1,12.2,12.1,12.1,0,1,0,24.1,0Z"/><path d="M205.5,100.7c10.9,2.9,17.2,9.6,18,18.6s-3.9,17-15.3,22.4c0,8,.1,16.1,0,24.1,0,21.9-10.3,37.2-29.8,46.7a3.7,3.7,0,0,0-1.7,2.5c-.2,2.5-.1,4.9-.1,7.4a11,11,0,0,1-9.6,11.1c-2,.3-2.4,1.2-2.4,3,.1,12,0,23.9.1,35.8s8.4,18,19.8,15.7a132.6,132.6,0,0,0,48.7-20.9c1.5-1,4-1.9,5.7-1.5s3.4,2.4,4,4.1-.7,4.5-2.8,6A136.2,136.2,0,0,1,214,290.3a134.6,134.6,0,0,1-29.8,8.9,25.8,25.8,0,0,1-30.5-25.4V234.2l-1.1-.4c-8-1.7-11.2-5.2-10.8-13.3.3-5.1-1.2-7.6-5.9-10.3-16.6-9.1-25.5-23.5-25.8-42.8-.2-8.5,0-17,0-25.7-10.5-4.1-16.2-11.5-15.1-23,.8-8.9,7-15,17.8-18V67.2c0-9.4,7.3-16.9,16.4-16.8a16.5,16.5,0,0,1,16.3,16.9v33.1h27.3V67.3c0-9.2,6-15.6,15.3-16.8,7.5-.9,15.2,4.8,17.1,13a23.2,23.2,0,0,1,.3,4.6ZM121,142.4c0,6.1-.1,12.1,0,18.1s-.1,9.5.9,14.1c4.2,20.6,22.6,33.2,43.5,30.1,16.2-2.4,30-16.3,31.3-32.4.8-9.3.5-18.7.6-28.1a11,11,0,0,0-.2-1.8Zm38.1-11.3h43.8a9.7,9.7,0,0,0,9.1-13c-1.5-4.1-5-6.4-10.4-6.4h-85a6.3,6.3,0,0,0-2.4.2,15.2,15.2,0,0,0-4.7,2,9.4,9.4,0,0,0-3.2,10.7,9.6,9.6,0,0,0,9.2,6.5Zm-24.5-30.6c0-11.4.1-22.5-.1-33.7a5,5,0,0,0-6-5.1c-3,.3-4.8,2.6-4.8,6.5V98.7c0,.6.2,1.2.2,1.8Zm59.9-.1c0-11.3.2-22.6,0-33.8-.1-3.3-2.6-5.1-5.7-5s-5.1,2.5-5.1,6.5V98.3a14.9,14.9,0,0,0,.2,2.1ZM165.6,216.3H152.8v6.2h12.8Z"/><path d="M158.8,33.3c-25.6.6-49.3,7.3-70.7,21.4-1.2.8-2.4,1.6-3.7,2.3-2.9,1.5-5.9.9-7.5-1.6a5.5,5.5,0,0,1,1.7-7.6,98,98,0,0,1,9.6-6.2,139.6,139.6,0,0,1,46.7-17,138.1,138.1,0,0,1,80.5,9.6Q261.3,54.3,284,99.1a135.8,135.8,0,0,1,14.8,66.5,139.9,139.9,0,0,1-26.2,77.7c-2.2,3.1-5.4,3.9-8,2.2s-3.3-5.2-1.1-8.5a130.1,130.1,0,0,0,15.4-28.1,128,128,0,0,0-6-107.3,127.8,127.8,0,0,0-96.5-66.7C170.5,34.2,164.6,33.9,158.8,33.3Z"/><path d="M58.1,67.7a5.5,5.5,0,0,1,11-.3,5.8,5.8,0,0,1-5.7,5.7A5.5,5.5,0,0,1,58.1,67.7Z"/><path d="M248.6,256.7a5.5,5.5,0,1,1,10.9,0,5.5,5.5,0,0,1-5.6,5.4A5.4,5.4,0,0,1,248.6,256.7Z"/><path d="M157.2,173.5h-5.6c-4.7-.3-7.2-5.1-4.3-8.8,4.5-6.1,9.3-12.1,14.1-18a5.5,5.5,0,0,1,7.8-.9c2.3,1.9,2.6,5.1.7,7.9s-2.2,2.8-3.3,4.2l-3.5,4.4,4.1.3c4,.4,6.3,4.1,4.4,7.7-3.6,6.9-7.5,13.7-11.4,20.4a5.5,5.5,0,0,1-9.5-5.5C152.7,181.4,154.9,177.7,157.2,173.5Z"/></g></svg>