<svg xmlns="http://www.w3.org/2000/svg" viewBox="0 0 316.9 315.3"><g id="iconblack"><path d="M299.5,85.7c-4-1-8-2.4-11.9-3.8a4.7,4.7,0,0,1-2.4-2.4c-2-4.5-3.9-9.1-5.7-13.6a5.2,5.2,0,0,1,.1-3.5c2-4.2,4.3-8.4,6.5-12.6s1.9-7.9-1.5-11.7-5-5.2-7.7-7.6a8.7,8.7,0,0,0-10.7-1.4c-4.4,2.2-8.8,4.4-13.2,6.8a3.5,3.5,0,0,1-3.7-.1c-4.4-1.9-8.9-3.6-13.3-5.6a5.1,5.1,0,0,1-2.6-2.6,122.9,122.9,0,0,1-4.1-12.1c-1.2-4-3.2-7.2-7-9H206c-3.8,1.7-5.9,4.6-7,8.6s-2.5,8.4-4,12.5a4.5,4.5,0,0,1-2.4,2.3c-4.3,2-8.8,3.6-13.1,5.6a4.3,4.3,0,0,1-4.5-.1c-4.2-2.3-8.4-4.4-12.6-6.6s-7.6-1.5-10.8,1.5-5.3,5.1-7.8,7.8-3.6,6.9-1.5,11.2,4.5,8.6,6.6,12.9a5,5,0,0,1,.1,3.4c-1.8,4.6-3.7,9.2-5.7,13.7a4.7,4.7,0,0,1-2.4,2.4c-7.4,3.1-15,4.9-23.2,4.2-5-.3-10,0-15.1,0H22c-3.9,0-7.3.9-9.8,4.1s-3,18.4.1,21.8,4.9,3.4,7.4,5c.2-.1.3-.3.5-.5V293.9c0,6.4,4,10.8,10,10.8h159a9.6,9.6,0,0,0,9.9-9.3c.1-1.2.1-2.4.1-3.5V189.2c2.5,4.8,6.3,6.5,11.2,6.2h8.2c5.6,0,8.4-2.1,10.1-7.4s2.8-9,4.4-13.5a4.5,4.5,0,0,1,2.3-2.4c4.5-2,9.1-3.9,13.7-5.7a5.6,5.6,0,0,1,3.4,0c4.4,2.1,8.8,4.5,13.2,6.7s7.5,1.7,10.8-1.2,5.3-5.1,7.8-7.8,3.6-7.4,1.4-11.5-4.5-8.6-6.6-13a4.2,4.2,0,0,1,0-3.1c1.8-4.6,3.6-9.1,5.7-13.6a4.9,4.9,0,0,1,2.5-2.6c4.2-1.5,8.5-2.9,12.7-4.1s7-3.3,8.5-7.2V92.7C306.7,88.8,303.6,86.8,299.5,85.7ZM20.4,105.6V96.4h99.1v9.2Zm109,189.1H90.2V245.4h39.2Zm59.7-73.1v73H139.7V245.2c1.6,0,3,.1,4.5,0,3.1-.2,5.2-2.2,5.3-5.1s-2-4.8-5.2-5.1h-67c-4.9,0-7.4,1.7-7.5,5s2.5,5.1,7.3,5.2h2.4v49.3H30.4V116h3.5c30.4,0,60.9-.3,91.4.1,5.5.1,11,2.6,16.5,4.2.6.1,1,1.2,1.3,2,1.9,4.5,3.9,9.1,5.7,13.7a5.6,5.6,0,0,1,0,3.4c-2.1,4.3-4.4,8.6-6.7,12.9s-1.7,7.9,1.4,11.2,5.3,5.5,8.1,8,6.7,3.2,10.5,1.3,8.7-4.6,13.2-6.7a5.5,5.5,0,0,1,3.6,0c2.8,1,5.3,2.5,8,3.5a3.1,3.1,0,0,1,2.3,3.4C189.1,189.2,189.1,205.4,189.1,221.6ZM291.5,108,281,111.4c-2.4.7-3.7,2.3-4.6,4.7-2.3,6.1-4.8,12-7.5,17.9-1,2.3-1.3,4.3-.1,6.6,2.8,5.4,5.5,10.9,8.4,16.8l-6.9,6.6c-5.4-2.8-10.7-5.5-15.8-8.3-2.7-1.4-4.9-1.3-7.7.1a175,175,0,0,1-17.3,7.2c-2.7,1-4.3,2.3-5.1,5-1.5,5.2-3.2,10.3-4.9,15.5a3.5,3.5,0,0,1-2.3,1.8c-2.6.2-5.2.1-8,.1-1.9-5.9-3.8-11.5-5.5-17.2-.8-2.9-2.6-4.1-5.3-5.1a166.8,166.8,0,0,1-16.9-7c-2.9-1.5-5.2-1.7-8.1-.1-4.5,2.5-9.1,4.8-13.7,7a3.6,3.6,0,0,1-3.2-.4c-5.8-4.8-5.8-4.9-2.4-11.4,1.9-3.6,3.6-7.1,5.5-10.6s.9-4.1-.1-6.3c-2.7-6.1-5.3-12.2-7.6-18.4a6.8,6.8,0,0,0-4.5-4.5l-17.7-5.6a70.6,70.6,0,0,1,.1-8,3,3,0,0,1,1.8-2.3c5.1-1.8,10.2-3.5,15.4-5,2.7-.8,3.9-2.5,4.8-4.9,2.3-6,4.7-11.9,7.4-17.6,1.1-2.6,1.5-4.7.1-7.1-2.5-4.6-4.7-9.4-7.2-14-.9-1.6-.8-2.7.6-4s3.1-3.4,4.7-5.2c5.7,2.9,11,5.5,16.1,8.3,2.9,1.7,5.4,1.5,8.4,0a170.1,170.1,0,0,1,16.6-6.8c2.7-1,4.5-2.3,5.3-5.2,1.4-5.2,3.2-10.4,4.7-15.5a2.6,2.6,0,0,1,2.8-2.2c7.6-.1,7.6-.1,9.8,6.9,1.2,3.6,2.4,7.2,3.5,10.8s2.3,3.7,4.7,4.6c6,2.3,12,4.8,17.9,7.5,2.2,1,4.1,1.3,6.3.1l16.9-8.4,6.7,7c-2.9,5.5-5.6,10.9-8.5,16.3-1.3,2.5-1.1,4.6.1,7.1q3.9,8.5,7.2,17.4c.9,2.4,2.1,4.1,4.8,4.9,5.3,1.5,10.5,3.3,15.8,4.8a2.6,2.6,0,0,1,2.1,2.9C298.7,105.7,298.8,105.7,291.5,108Z"/><path d="M40,159.8c.1,6.5,4.2,10.8,10.7,10.8H69.3c6.3,0,10.5-4,10.7-10.3s.2-12.9,0-19.4-4.2-10.1-9.9-10.2-13.5-.2-20.3,0-9.7,4.5-9.8,10.2v18.9ZM50.3,141H69.6v19.2H50.3Z"/><path d="M99.9,170.6q9.9.3,19.8,0c5.8-.1,9.9-4.5,10-10.3V141.1a10.2,10.2,0,0,0-10.5-10.5H100.3c-6.1.1-10.4,4-10.6,10.1s-.2,13.3.1,20S94.1,170.5,99.9,170.6Zm.2-29.6h19.3v19.3H100.1Z"/><path d="M69.3,185.3H50.2A10,10,0,0,0,40,195.5v18.9c.1,6.5,4,10.7,10.4,10.9s12.7.1,19.1,0,10.3-4.1,10.5-10.2.2-13,0-19.5S75.6,185.4,69.3,185.3Zm.4,29.6H50.1v-6.5c0-3.3.1-6.6,0-9.9s.4-3.2,3-3.2c5.4.2,10.8.1,16.6.1Z"/><path d="M119.3,185.3H100.4c-6.2.1-10.5,4-10.7,10.2s-.1,13,0,19.5,4.1,10.1,10.1,10.3,13.2.2,19.7,0,10.1-4.5,10.2-10.8,0-12.6-.1-18.9S125.3,185.4,119.3,185.3Zm.3,29.7H100.1V195.4h18.2c.5,0,1.2,1,1.2,1.5C119.6,202.9,119.6,208.8,119.6,215Z"/><path d="M179.3,195.9c-.1-6.5-4.2-10.5-10.6-10.6H150.1c-6.4.1-10.5,4.1-10.6,10.5v18.9c.1,6.2,3.9,10.4,10,10.6s13.2.2,19.8,0,9.9-4.4,10-10.6V195.9Zm-10.1,19H149.7V195.6h19.5Z"/><path d="M214.2,46.2A54.7,54.7,0,1,0,268.8,101,54.6,54.6,0,0,0,214.2,46.2Zm14.1,75c-3.1,2.1-4.5,4.4-4.3,8.1s.1,9.9.1,14.8c-4.8,2.1-14,1.9-19.9.2,0-5.3-.1-10.5.1-15.8a7.3,7.3,0,0,0-3.7-6.9A24.7,24.7,0,0,1,199,81.4V85a45.6,45.6,0,0,1,0,6.4c-1.3,8.2,3.6,13.1,9.1,17.5,2.9,2.3,6.3,2.5,9.7,1.2,6-2.2,11.3-10.1,11.3-16.5V81.5l2.3,1.7A24.7,24.7,0,0,1,228.3,121.2Zm5.6,19.4c0-3.5-.1-6.7.1-9.9a5.2,5.2,0,0,1,1.9-2.6c17.3-14,17.2-40.9-.2-54.5-3.4-2.6-7-3.3-10.9-1.5s-5.7,5.1-5.9,9.3a54.5,54.5,0,0,0,.1,9.9c.6,4.5-1.9,6.9-4.9,9.2-3.7-2.4-5.5-5.5-5-10a65.4,65.4,0,0,0,0-9.9,9.6,9.6,0,0,0-5.8-8.7c-3.7-1.6-7.2-.9-10.4,1.6-17.6,13.3-18.2,39.7-1,54.1a5.9,5.9,0,0,1,2.3,5.2c-.2,2.5-.1,5-.1,7.6-14-6.1-26.9-24.6-23.6-46.1s21.6-37.5,44.3-37.8c18.9-.4,38,13.3,42.8,35.1C261.9,111,251.4,133.1,233.9,140.6Z"/></g></svg>