<svg xmlns="http://www.w3.org/2000/svg" viewBox="0 0 365.1 325.3"><g id="Capa_5" data-name="Capa 5"><path d="M185.7,69.7c40.7,0,81.4.2,122-.1,13.2-.1,21.8,9.5,21.7,21.7-.4,53.2-.2,106.3-.3,159.5,0,10.4-5.2,17.9-14.2,20.4a27.4,27.4,0,0,1-7,.8l-245.6-.4c-12.4,0-20.6-8.3-20.6-20.7q.1-79.8.2-159.8c0-13.9,7.9-21.7,21.8-21.7h122Zm.5,117.8L311.5,79.8l-.3-.9H59.5Zm-127.3,74,.3.9H312l-96.6-88-24.5,21c-4,3.4-5.5,3.4-9.4.1l-17-14.6-8.8-7.5Zm89.9-94.1L52.1,84.5c-1.8,6.4-1.8,167.9-.1,171.1Zm170.6,89.4c.2-2.6.5-4.3.5-6q.3-80,.4-160.1a52.8,52.8,0,0,0-.8-5.8l-97.2,83.5Z"/></g></svg>