<svg xmlns="http://www.w3.org/2000/svg" viewBox="0 0 412.7 396.3"><g id="Capa_5" data-name="Capa 5"><path d="M311.4,358.8h26.5a21.7,21.7,0,0,1,4.4.3c3.2.5,5,2.6,4.9,5.6s-2.1,5-5.1,5.6a19,19,0,0,1-3.4.1H78.3c-3.6-.3-6.2-2.7-6.2-5.8s2.5-5.6,6.2-5.6c9-.2,17.9-.1,26.9-.1l3.6-.3c-7.4-6.9-14.2-13.5-21.3-19.7C75.3,328,72.6,315.3,77.3,299.7c5.9-19.2,10.5-38.9,15.6-58.3,1.2-4.5,2.6-8.9,3.7-13.3,3.5-14.9,13-24.6,26.1-31.4s29.9-10.6,45.9-11.9a515.6,515.6,0,0,1,69.2-.7c19.1,1,37.9,3.2,55.4,11.9,13.8,6.9,23.7,17,27.6,32.4,5.7,22.1,11.7,44,17.7,66,1,3.9,2.7,7.7,3.6,11.7,2.5,11.8-.7,22-9.1,30.5-6.4,6.4-12.9,12.5-19.4,18.8l-2.7,2.4ZM122.1,260c0,1.6-.1,2.9,0,4.2.8,10,1.6,19.9,2.5,29.8,1.6,20,3.4,40,4.9,60,.3,3.5,1,4.9,5,4.9,50.1-.2,100.3-.1,150.4-.1h4.5c2.7-33.1,5.5-65.8,8.2-98.8Zm67.2-11.6c1.1-6.6,2.2-12.7,3-18.8.6-4.2,1.9-8.6.8-12.4-1.8-6.8-5-13.3-7.8-19.8a4.4,4.4,0,0,0-3.2-2.1c-3.6,0-7.2.4-10.8.7-14.1,1-28,3.2-40.8,9.5-10.4,5.1-19.2,11.7-22.3,23.7L104.8,241,87.1,306.9c-2.2,8.3-.2,15.6,6.1,21.5s14.6,13.6,21.9,20.4l2.8,2c-1-11.6-1.8-22.5-2.7-33.4-1.7-20.4-3.5-40.8-5.1-61.1-.5-5.9,1.5-7.8,7.5-7.9h71.7Zm40.8.1h71.6c6,0,8,1.9,7.6,7.8-.7,9.7-1.5,19.4-2.3,29.1l-4.2,49.5-1.2,15.3,1.7,1.1c7.8-8.2,15.7-16.4,23.3-24.7a17.8,17.8,0,0,0,4.5-15.7c-.8-4.7-2.6-9.3-3.8-14-6-22-12-44.1-17.8-66.2a33.6,33.6,0,0,0-16.9-21.8,94.1,94.1,0,0,0-15.8-7.3c-13-4.7-26.6-5.3-40.1-6.1-.9-.1-2.3,1.3-2.7,2.2-2.8,6.3-5.3,12.7-7.8,19a7.4,7.4,0,0,0-.7,3.2C227,229.4,228.5,238.8,230.1,248.5Zm-11.7-.2c-1-6.8-1.7-13.3-3.1-19.6s-1.5-14.3,2.2-21.2c2.1-3.9,3.4-8.1,5.2-12.6H196.6c2.7,6.5,5.4,12.6,7.6,18.7a14.4,14.4,0,0,1,.9,6.8c-1.1,9.3-2.7,18.5-4.1,27.9Z"/><path d="M144.4,105.6c-.1-34,21-58.8,50.4-63.8,22-3.7,42.3.1,59.3,15.3s21.5,32.3,18.7,53.1-12.5,38.8-29.1,52.3c-22.1,18-48.5,17.9-70.3-.5C154.8,146.2,145.1,125.7,144.4,105.6Zm11.4-.1c2.5,19.5,10.4,35.4,24.9,47.7,16.8,14.3,37.3,14.8,54.8,1.3,11-8.5,18.4-19.8,22.9-32.9A59.5,59.5,0,0,0,262,99.2c-14.3,2.3-27.2-.2-38.2-9.7C204.4,108.8,181.7,113.1,155.8,105.5ZM260.1,87.8a10.8,10.8,0,0,0-.9-3.2c-3-5.3-5.5-11.3-9.5-15.8-18-19.9-52.5-22.7-74.5-6.6a46.2,46.2,0,0,0-18.3,28.1c-.2,1.2.5,3.5,1.3,3.8a59.9,59.9,0,0,0,29.4,2.7c12.5-2.1,22.2-8.9,30.6-18,3.8-4.2,6.6-4.4,10.4-.5C237.2,87.3,247.8,89.7,260.1,87.8Z"/><path d="M209.7,336c-3.2,0-6.5.1-9.7,0s-6-2.5-6-5.8,2.3-5.4,5.8-5.5h19.8c3.5.1,5.7,2.4,5.8,5.5s-2.4,5.7-6,5.8S212.9,336,209.7,336Z"/><path d="M217.2,309a7.6,7.6,0,0,1-7.7,7.5,7.5,7.5,0,0,1-7.3-7.8,7.5,7.5,0,0,1,15,.3Z"/></g></svg>