<svg xmlns="http://www.w3.org/2000/svg" viewBox="0 0 279.1 370.3"><g id="Capa_5" data-name="Capa 5"><path d="M212.5,184.8v119c0,15.6-8.9,24.6-24.3,24.6q-50.5.2-101,0c-16.8,0-25.4-8.9-25.4-25.8.1-79,.3-158-.1-237,0-14.9,9.9-25.8,25.4-25.5,33.8.6,67.7.2,101.5.2,15,0,23.9,9,23.9,23.9ZM105,48.5c-7.8,0-15.4-.8-22.7.3-3.7.5-7.7,3.7-10.2,6.8s-2,6.6-2,10q-.3,119.3-.2,238.6c0,10.3,5.7,16.1,16.1,16.1H186.5c13.1,0,18-4.9,18-18.1V67.6c0-2,.1-4,0-6-.4-6.4-5-12.4-11.2-12.9-7.9-.6-15.9-.1-23.7-.1-1.5,8.5-2.8,9.6-10.9,9.6h-43C107.7,58.2,106.2,56.9,105,48.5Z"/></g></svg>