<svg id="Capa_1" data-name="Capa 1" xmlns="http://www.w3.org/2000/svg" viewBox="0 0 164.6 158.4"><path d="M54.5,103.4H118a39.1,39.1,0,0,0,4.9-.3c15-2.3,25.7-17.1,23.2-32.1a28,28,0,0,0-28-23.6H77.3c-.6,0-1-.1-1.1-.8a16.5,16.5,0,1,0,0,6.7c.1-.7.4-.9,1-.9h41a24.8,24.8,0,0,1,5.4.6A23.1,23.1,0,0,1,140.1,83c-.3.8-.6,1.1-1.5,1.1H86a2.2,2.2,0,0,0-1.9,2,2.3,2.3,0,0,0,1.1,2.4,4.5,4.5,0,0,0,1.9.5h49.7c-.4.4-.5.7-.7.9a22.6,22.6,0,0,1-17.9,8.3H51.6C40,99.8,31.2,111.1,32.8,122.7a21.8,21.8,0,0,0,21.9,19H86.6a1.1,1.1,0,0,1,1.2.7,6.9,6.9,0,0,0,5.3,4.2,18.2,18.2,0,0,0,3.3.1,1.6,1.6,0,0,1,1.4.7,12.8,12.8,0,0,0,9.5,5.5,73,73,0,0,0,8.1.2,2.5,2.5,0,0,0,2.8-2.8v-2.4h9c1.7,0,2.9-1,2.9-2.5s-1.2-2.5-3-2.5h-8.8v-7.4h9c1.7,0,2.8-1,2.7-2.5a2.4,2.4,0,0,0-2.6-2.5h-9.2a22.5,22.5,0,0,0,0-2.6,2.4,2.4,0,0,0-2.6-2.6h-6.8a13,13,0,0,0-10.1,4.6,4.5,4.5,0,0,1-4,1.8,7.2,7.2,0,0,0-7,4.4.9.9,0,0,1-.9.6H54.1a16.6,16.6,0,0,1,.4-33.2Zm5.4-42.1A11.5,11.5,0,1,1,71.5,49.8,11.5,11.5,0,0,1,59.9,61.3ZM100.4,137a9.1,9.1,0,0,1,8.3-6.7h4.4V148c-2.9,0-5.9.5-8.6-1.2A8.9,8.9,0,0,1,100.4,137Zm-7.9.9a2.6,2.6,0,0,1,2.7-1.2v5a2.6,2.6,0,0,1-2.7-1.2A2.1,2.1,0,0,1,92.5,137.9Z"/><path d="M62.5,82.5v6.7a2.4,2.4,0,0,1-1.4,2.4,2.7,2.7,0,0,1-2.7-.3,2.5,2.5,0,0,1-.9-2V75.6a2.5,2.5,0,1,1,5,0C62.6,77.9,62.5,80.2,62.5,82.5Z"/><path d="M57.5,17.1V10.4A2.6,2.6,0,0,1,60,7.7a2.5,2.5,0,0,1,2.5,2.7c.1,4.5.1,9,0,13.6A2.4,2.4,0,0,1,60,26.6,2.5,2.5,0,0,1,57.5,24V17.1Z"/><path d="M37.7,39.5a4.8,4.8,0,0,1-1.4-.5c-3.9-2.2-7.8-4.4-11.6-6.7a2.5,2.5,0,1,1,2.5-4.4L39,34.8a2.3,2.3,0,0,1,1.1,2.9A2.6,2.6,0,0,1,37.7,39.5Z"/><path d="M40.3,62.5A2.7,2.7,0,0,1,39,64.8l-12,7a2.6,2.6,0,0,1-3.4-.9,2.5,2.5,0,0,1,.9-3.5l12-6.9A2.5,2.5,0,0,1,40.3,62.5Z"/><path d="M96.8,30a2.8,2.8,0,0,1-1.5,2.4L85.1,38.2l-1.5.9a2.5,2.5,0,1,1-2.5-4.4l8.5-4.9,3.4-2A2.6,2.6,0,0,1,96.8,30Z"/><path d="M96.8,69.6a2.5,2.5,0,0,1-3.9,2.1l-6.6-3.8L81,64.8a2.4,2.4,0,0,1-1.1-3,2.4,2.4,0,0,1,2.6-1.6,2.8,2.8,0,0,1,1.2.4l11.7,6.8A2.5,2.5,0,0,1,96.8,69.6Z"/></svg>