<svg id="Capa_1" data-name="Capa 1" xmlns="http://www.w3.org/2000/svg" viewBox="0 0 164.9 145.6"><path d="M158.9,70.8a7.3,7.3,0,0,0-7.1-7.4c-3.8-.1-7.6,0-11.4,0-1.4,0-2,.6-2,1.9v5h-9.8a2,2,0,0,1-1.9-1.1,8,8,0,0,0-2.9-2.2,18.9,18.9,0,0,0-4.1-1c-1.1-.2-1.5-.7-1.4-1.8V52.8c0-6-3.1-9-9.1-9H68.3V37.2c10.9-2.1,14.1-10.8,13.2-17.3a15,15,0,0,0-29.7.3c-1,8.3,3.8,14.6,13.2,17v6.6H21.2c-6.4,0-10.4,3.9-10.4,10.2V99.2c0,6.2,4,10.2,10.3,10.2H55.9v13.4H33.5a12.3,12.3,0,0,0-2.7.2,6.7,6.7,0,0,0-5.7,6.2c-.1,2.6-.1,5.2-.1,7.8a1.7,1.7,0,0,0,1.7,1.8h79.4c1.5.1,2.3-.6,2.2-2.2v-5.8c0-5.2-2.8-8-8.1-8H77.5V109.4H110a8,8,0,0,0,8.3-8.1V92.8c0-1.7-.6-3.9.2-5s3.3-.9,4.8-1.6a8.9,8.9,0,0,0,3.4-2.3,2.2,2.2,0,0,1,2-1.1c2.7.1,5.4,0,8.2,0l1.5.2c0,1.6.1,3,0,4.5s.6,2.3,2.2,2.3h10.9a7.4,7.4,0,0,0,7.4-7.3C159,78.5,159,74.7,158.9,70.8ZM54.8,21.9A11.9,11.9,0,1,1,66.5,34,11.9,11.9,0,0,1,54.8,21.9ZM24.9,106.2a34.7,34.7,0,0,1-5.6-.1c-3.3-.4-5.3-3-5.3-6.6s0-6.8,0-10.2V54.5c0-5.3,2.4-7.6,7.7-7.6h3.2Zm74.2,19.7h2.2a3.7,3.7,0,0,1,3.8,3.3c.2,2,0,4.1,0,6.3H28.3c0-2.3-.2-4.5,0-6.7a3.5,3.5,0,0,1,3.4-2.9H99.1Zm-39.9-3.2V109.5H74.1v13.2Zm45.9-16.5H28.2V47h76.9Zm3.3,0V47.1c4.3-.8,6.8,1.2,6.8,5.4v47.7C115.2,104.7,113.2,106.6,108.4,106.2Zm15.8-24.6a2.2,2.2,0,0,1-1.2,1.5c-1.5.5-3,.7-4.7,1.1V68.9c1.8.4,3.4.7,5,1.2a2,2,0,0,1,.9,1.3Q124.4,76.5,124.2,81.6Zm14.1-2H127.5V73.5h10.8Zm17.5,2.5c-.1,2.9-1.9,4.5-4.8,4.5s-6.1,0-9.3,0V66.5c3.5,0,6.9-.1,10.3.1a4.1,4.1,0,0,1,3.8,4.4Q156,76.6,155.8,82.1Z"/><path d="M100.8,78.5c-2.1-6.2-5.5-11.5-9.1-16.9a1.5,1.5,0,0,0-2.7,0c-3.4,5.4-7,10.7-9,16.9-1.4,4.3-.1,8.1,3.2,11a10.2,10.2,0,0,0,11.7,1.8c4.1-1.9,6.1-5.2,6.4-10A16.6,16.6,0,0,0,100.8,78.5Zm-5.9,9.2a7.8,7.8,0,0,1-8.9.1,7.5,7.5,0,0,1-3.1-8.2c1.6-5.1,4.5-9.5,7.5-14.4,2.9,4.8,5.8,9.2,7.4,14.3A7.3,7.3,0,0,1,94.9,87.7Z"/><path d="M75.7,76.6l-1.6,1.5c-.2.2-.7,0-1,0H37.6c-.3,0-.8.2-1,0A11.4,11.4,0,0,1,35,76.6c.5-.5,1-1.4,1.6-1.5a52.8,52.8,0,0,1,5.6-.1H72.8c.5,0,1-.1,1.3.1A11.4,11.4,0,0,1,75.7,76.6Z"/><path d="M75.6,87.1c0,.5-.8,1.1-1.3,1.5s-.9,0-1.3,0H37.8c-.5,0-1.1.2-1.5,0A3.1,3.1,0,0,1,35.1,87c0-.4.7-1,1.2-1.4s.9-.1,1.3-.1H72.9c.5,0,1.1-.2,1.4,0S75.6,86.6,75.6,87.1Z"/><path d="M75.7,97.6c-.6.5-1.1,1.4-1.7,1.5a26.7,26.7,0,0,1-4,.1H37.4c-1.2,0-2.3-.1-2.4-1.6s1.2-1.5,2.4-1.5H74C74.6,96.5,75.1,97.1,75.7,97.6Z"/><path d="M75.6,66.1c0,1.4-1.2,1.5-2.3,1.5H37.4c-.9,0-1.9,0-2.3-1.2s.5-1.9,2.1-1.9H73.3C74.5,64.5,75.6,64.6,75.6,66.1Z"/><path d="M75.6,55.5c0,1.4-1.1,1.6-2.3,1.6h-36c-1.2,0-2.3-.2-2.3-1.6s1.2-1.6,2.3-1.5H73.4C74.6,53.9,75.6,54.1,75.6,55.5Z"/><path d="M73.6,26.6a1.5,1.5,0,0,1-2.2,1.5,73.4,73.4,0,0,1-6-5.1,2.3,2.3,0,0,1,.2-1.8c.2-.4,1.3-.7,1.6-.4l6.3,5.3A1.1,1.1,0,0,1,73.6,26.6Z"/></svg>