<svg id="Capa_1" data-name="Capa 1" xmlns="http://www.w3.org/2000/svg" viewBox="0 0 165.9 99.4"><path d="M59.7,77.1c-1.4-8.7-2.9-17.5-4.4-26.2a2.8,2.8,0,0,0-2.9-2.4H13.9a2.8,2.8,0,0,0-3,2.6C9.5,59,8.2,66.9,6.8,74.9l-.3,2.3c-.3,2.1.8,3.4,2.9,3.4H56.7C59,80.6,60.1,79.3,59.7,77.1Zm-32-19.5.3-3.1c.1-.2.4-.6.5-.6h9.7c.2,2.6.5,5.3.8,8H27.3C27.4,60.4,27.5,59,27.7,57.6ZM21.8,75.2H12.3c.2-1,.4-2,.5-3s.7-3.8,1-5.7c.1-.2.4-.6.6-.6h8.4C22.4,69.1,22.1,72.1,21.8,75.2Zm1.4-13.3H14.6c.4-2.2.7-4.3,1.1-6.4s.3-1.6,1.9-1.6H24C23.7,56.6,23.4,59.2,23.2,61.9Zm2.7,13.3.9-9.2H39.4l.9,9.2ZM42.3,54h7.3c.4,0,.7,0,.8.5l1.2,7.2c0,.1,0,.1-.1.3H43.1C42.8,59.2,42.5,56.6,42.3,54Zm2.1,21.2c-.3-3.1-.6-6.1-.9-9.3h8.4a.7.7,0,0,1,.5.4l1.5,8.9Z"/><path d="M107.5,68.8h-2.4v-3c0-1.2-.4-1.6-1.6-1.6H98.2c-1.2,0-1.7.4-1.7,1.6v2.9h-10a.3.3,0,0,0-.1-.2V65.8c0-1.2-.4-1.6-1.5-1.6H79.4c-1.1,0-1.5.4-1.5,1.5s0,2,0,3.1H75.5c-1.3,0-1.7.4-1.7,1.6V89.7a1.4,1.4,0,0,0,1.6,1.6h32.1c1.2,0,1.7-.5,1.7-1.6V70.4C109.2,69.2,108.7,68.8,107.5,68.8ZM87.2,78.4c0,.6-.3,1-1,.9H78.4c-1.2,0-1.3-.1-1.3-1.3v-.5a.8.8,0,0,1,.9-.9h8.3a.8.8,0,0,1,.9.9Zm18.7,0c0,.6-.3,1-1,.9h-2.7V82c0,.7-.3,1.1-1.1,1h-.8a.8.8,0,0,1-.9-.9,26.1,26.1,0,0,0,0-2.8H96.8a1,1,0,0,1-1.1-1.1c.1-.2,0-.4,0-.6s.3-1.1,1.1-1.1h2.6a24.3,24.3,0,0,0,0-2.7c0-.7.4-1,1.1-1h.5c1,0,1.2.2,1.2,1.1v2.6h2.6c.9,0,1,.2,1.1,1.1Z"/><path d="M47,19.1l-2.8-1.9c-.5-.2-.5-.5-.4-1l.6-3.4a2.4,2.4,0,0,0-2.9-2.9l-3.4.7a.9.9,0,0,1-1-.4L35.2,7.3a2.4,2.4,0,0,0-4.2,0c-.7,1-1.3,2-2,2.9a.8.8,0,0,1-.8.3l-3.3-.6c-2.2-.4-3.5.9-3.1,3.1l.6,3a.9.9,0,0,1-.5,1.3l-2.7,1.9a2.4,2.4,0,0,0,0,4.1,29,29,0,0,0,2.9,1.9.8.8,0,0,1,.4,1c-.3,1.1-.4,2.2-.7,3.2a2.5,2.5,0,0,0,3.1,3.1c1-.2,2.1-.3,3.1-.6s.9,0,1.2.6l1.9,2.7c1.1,1.6,2.9,1.6,4.1,0l1.9-2.9a.8.8,0,0,1,1-.4l3.8.7a2.3,2.3,0,0,0,2.5-2.7c-.1-1.3-.4-2.5-.6-3.7a.8.8,0,0,1,.3-.9l2.9-2C48.7,22.2,48.7,20.3,47,19.1Zm-3,2.8-2.4,1.7c-1.1.7-1.1.7-.8,2s.5,2.6.7,4.1L37,28.8a1.1,1.1,0,0,0-1.3.5l-2.6,3.9c-.9-1.4-1.8-2.6-2.6-3.9a.9.9,0,0,0-1.2-.5l-4.6.9c.3-1.5.5-2.8.8-4.1s.2-1.3-.9-2l-3.4-2.4,3.9-2.6a.9.9,0,0,0,.5-1.1l-.9-4.7,4.3.8a1.3,1.3,0,0,0,1.7-.7c.7-1.2,1.6-2.4,2.4-3.6l2.6,3.9a1.1,1.1,0,0,0,1.3.5l4.5-.9c-.2,1.4-.5,2.6-.7,3.9s-.3,1.5,1,2.3L45,21.2Z"/><path d="M102.1,35.6l-5,13.5,3.3-1.1L91.6,64.1h-.1q1.1-5.1,2.1-10.5l-3.3,1.3c.2-1.6.5-3,.7-4.4.8-4.5,1.5-8.9,2.3-13.3a2,2,0,0,1,.6-.7l7.8-.9Z"/><path d="M27.8,86V83.3H38.5V86h3.6c1.3,0,1.7.4,1.7,1.6v1.9c0,1.4-.4,1.8-1.7,1.8H24.4c-1.6,0-2-.4-2-1.9v-2A1.3,1.3,0,0,1,23.9,86Z"/><path d="M145.5,84.5a10.2,10.2,0,0,1,.8-2.3,42.7,42.7,0,0,1,3-4.4,6.8,6.8,0,0,0,.1-8.7,7.6,7.6,0,0,0-9.3-1.6,6.7,6.7,0,0,0-3,8.1,10.5,10.5,0,0,0,1.5,2.4,19.4,19.4,0,0,1,3.1,5.2l.4,1.3h-2.5l-.4-.6a43.2,43.2,0,0,0-2.7-4.2c-2.4-2.9-3.2-6.1-1.8-9.6a9,9,0,0,1,7.9-6,9.5,9.5,0,0,1,10.8,7.8,9,9,0,0,1-2.1,7.5c-1.1,1.4-1.9,3-2.9,4.5s-.5.5-.7.6Z"/><path d="M139.5,86.2h8.6c.6,2-.3,3.5-1.5,4.8a1.4,1.4,0,0,1-.9.3h-3.8a1.6,1.6,0,0,1-1.1-.5A4.5,4.5,0,0,1,139.5,86.2Z"/><path d="M124.1,89.1H113.3c-.2,0-.5.1-.7,0s-.7-.5-.7-.7.4-.6.7-.9h23.1c.3.3.7.6.7.8a1.1,1.1,0,0,1-.7.8,5.7,5.7,0,0,1-1.3,0Z"/><path d="M58.8,89.1H47.6c-.6,0-1.1-.1-1.1-.8s.5-.8,1.1-.8H70a1,1,0,0,1,1.1.7c.1.6-.3.9-1,.9H58.8Z"/><path d="M43.7,35.8a1.5,1.5,0,0,1,.5-.6,1,1,0,0,1,.9.2c.2,0,.3.3.4.5,1.1,2.4,2.2,4.8,3.4,7.2,0,.1.1.2.1.3s.2,1-.4,1.1a1.2,1.2,0,0,1-1-.4l-3.8-7.8A1.3,1.3,0,0,0,43.7,35.8Z"/><path d="M22.6,35.8c-.2.4-.2.6-.3.8l-3.6,7.3a1.4,1.4,0,0,1-.8.7.8.8,0,0,1-.7-1.2c1.2-2.6,2.5-5.2,3.8-7.8.1-.3.6-.4.9-.4S22.4,35.6,22.6,35.8Z"/><path d="M138.5,73.2a5.2,5.2,0,0,1,5.2-4.9.9.9,0,0,1,1,.7,1,1,0,0,1-.9,1c-2.3.3-3.2,1.2-3.6,3.3a.9.9,0,1,1-1.7-.1Z"/><path d="M33.9,42.2v2.2c0,.5-.1,1-.8,1s-.8-.4-.8-1V39.9c0-.5.2-.9.8-.9s.8.4.8,1Z"/><path d="M152.1,65.7a1.5,1.5,0,0,1-.6-.5.8.8,0,0,1,.1-.8,37,37,0,0,1,2.8-2.8.9.9,0,0,1,1,.1.9.9,0,0,1,.1,1l-2.8,2.8Z"/><path d="M157.6,72.4h1.8c.5.1.9.3.9.9a.8.8,0,0,1-.9.8h-3.7a.8.8,0,0,1-.8-.9,1.4,1.4,0,0,1,.8-.7h1.9Z"/><path d="M144.6,59.5a10.8,10.8,0,0,1,0,1.8c-.1.4-.5.6-.8.9s-.8-.5-.8-.8a24.1,24.1,0,0,1,0-3.8c0-.3.5-.6.8-.8s.7.5.8.8A12.1,12.1,0,0,1,144.6,59.5Z"/><path d="M130,72.5h1.9c.5,0,.8.2.8.8a.7.7,0,0,1-.8.8h-3.8c-.3-.1-.5-.6-.8-.9s.6-.6.9-.7Z"/><path d="M135.4,65.8l-.7-.5-2.4-2.4c-.4-.4-.6-.8-.1-1.3a.8.8,0,0,1,1.2.1l2.5,2.5a1.2,1.2,0,0,1,.2,1C136.1,65.4,135.7,65.6,135.4,65.8Z"/><path d="M33.2,15.1a6.2,6.2,0,0,0-.1,12.3,6.1,6.1,0,0,0,6.1-6.1A6.1,6.1,0,0,0,33.2,15.1Zm0,9.5a3.4,3.4,0,0,1-3.4-3.3,3.4,3.4,0,0,1,3.3-3.4,3.5,3.5,0,0,1,3.4,3.4A3.3,3.3,0,0,1,33.2,24.6Z"/></svg>