<svg id="Capa_1" data-name="Capa 1" xmlns="http://www.w3.org/2000/svg" viewBox="0 0 164.6 165.2"><path d="M135.4,25.8l-8.5-8.6A3.8,3.8,0,0,0,124,16H40.6a3.8,3.8,0,0,0-2.8,1.2l-8.3,8.3a3.4,3.4,0,0,0-1.2,2.8v118c0,1.9.9,2.9,2.8,2.9H133.6a2.5,2.5,0,0,0,2.7-2.8V28A2.9,2.9,0,0,0,135.4,25.8Zm-4.3,118.1H33.5V114.7h4.6a3.4,3.4,0,0,0,2.8-1.1l5.5-5.6a2.5,2.5,0,0,1,1.2-.4H117a1.8,1.8,0,0,1,1.2.5l5.6,5.5a3.3,3.3,0,0,0,2.7,1.1h4.6Zm.1-76.4v42h-3.9c-.3,0-.5-.3-.7-.5l-5.6-5.5a3.4,3.4,0,0,0-2.7-1.2h-72a3.1,3.1,0,0,0-2.6,1.1L38,109a1.6,1.6,0,0,1-1.1.5H33.5V30.4H87.8A2.4,2.4,0,0,0,90.2,29a2.1,2.1,0,0,0-.3-2.7,4.4,4.4,0,0,0-1.9-1,2.9,2.9,0,0,0-1.3-.1H37.2l1-1.1a9.1,9.1,0,0,0,1.7-1.7,3.3,3.3,0,0,1,2.9-1.2h79.6a2.3,2.3,0,0,1,1.8.7l6.3,6.4a1.8,1.8,0,0,1,.7,1.5Z"/><path d="M82.3,42.2a22.5,22.5,0,1,0,22.5,22.5A22.4,22.4,0,0,0,82.3,42.2Zm-.1,39.7A17.4,17.4,0,0,1,65,64.2,17.6,17.6,0,0,1,82.3,47.4a17.3,17.3,0,1,1-.1,34.5Z"/><path d="M125.2,29.4a2.3,2.3,0,0,1-2,1H102.3a2.6,2.6,0,1,1,0-5.2H123a2.6,2.6,0,0,1,2.5,1.5A2.3,2.3,0,0,1,125.2,29.4Z"/><path d="M101.1,110H63.4a2.6,2.6,0,0,0-2.8,2.8v26a2.6,2.6,0,0,0,2.7,2.7h38a2.5,2.5,0,0,0,2.7-2.8V112.9A2.6,2.6,0,0,0,101.1,110Zm-2.3,26.2H65.9v-21H98.8Z"/><path d="M116.9,117.9a7.9,7.9,0,1,0,7.8,7.9A7.9,7.9,0,0,0,116.9,117.9Zm0,10.5a2.7,2.7,0,1,1,2.6-2.6A2.6,2.6,0,0,1,116.9,128.4Z"/><path d="M47.5,117.9a7.9,7.9,0,0,0-.2,15.7,7.9,7.9,0,1,0,.2-15.7Zm0,10.5a2.8,2.8,0,0,1-2.7-2.6,2.7,2.7,0,0,1,2.6-2.7,2.7,2.7,0,0,1,.1,5.3Z"/><path d="M85.9,70.8c-.1.2-.1.4-.2.6l1.1.8a2.6,2.6,0,0,1-.1,3.7c-1.7,1.3-3.3,2.7-5,3.9a2.5,2.5,0,0,1-4.1-1.6c-.3-2.2-.4-4.5-.5-6.7a2.5,2.5,0,0,1,3.1-2.4h.7l1.9-4.3-4.1,1.9-.9.4a2.6,2.6,0,0,1-2.9-.5,2.6,2.6,0,0,1-.6-2.9l4.2-10.4c.3-.9.6-1.8,1-2.7a2.5,2.5,0,0,1,3.4-1.4,2.4,2.4,0,0,1,1.4,3.3c-.8,2.3-1.8,4.6-2.6,6.8,0,.1.1.1.1.2l4.7-2.2A2.6,2.6,0,0,1,90.1,61Z"/><path d="M96.3,130.6c0,1.5-1.2,2.5-2.9,2.5H76.7a2.5,2.5,0,0,1-2.8-2.6,2.5,2.5,0,0,1,2.7-2.6H93.5A2.5,2.5,0,0,1,96.3,130.6Z"/><path d="M96.3,121.4a2.5,2.5,0,0,1-2.3,2.7H85.5a2.4,2.4,0,0,1-2.2-2.7,2.5,2.5,0,0,1,2.5-2.4h7.9A2.5,2.5,0,0,1,96.3,121.4Z"/></svg>