<svg id="Capa_1" data-name="Capa 1" xmlns="http://www.w3.org/2000/svg" viewBox="0 0 164.1 164.8"><path d="M21.8,43.6v88H147.1v-88Zm22,69.9a6.7,6.7,0,1,1,6.9-6.7A6.7,6.7,0,0,1,43.8,113.5Zm20.9,0a6.7,6.7,0,0,1-6.6-6.9,6.8,6.8,0,1,1,6.6,6.9Zm21.1,0a6.7,6.7,0,0,1-6.8-6.7,6.9,6.9,0,0,1,6.7-6.6,6.7,6.7,0,0,1,6.8,6.8A6.6,6.6,0,0,1,85.8,113.5Zm43.2-5.1c-4.6.2-9.2.1-13.9.1s-8.8.1-13.3-.1c-.9,0-1.8-1.1-2.7-1.7.9-.5,1.8-1.4,2.7-1.4,9.1-.2,18.1-.2,27.2,0,.9,0,1.7,1,2.6,1.5C130.8,107.4,129.9,108.4,129,108.4ZM132.8,83c.1,2.5-.9,3.3-3.4,3.3H39.9c-3.6,0-3.9-.2-3.9-3.7,0-8.2.1-16.4,0-24.6,0-2.7.7-3.8,3.6-3.8h89.8c2.6,0,3.5.8,3.4,3.3C132.7,65.9,132.7,74.5,132.8,83Z"/><path d="M111.3,39.9H53.2c2-3.4,3.7-6.6,5.6-9.7a3.4,3.4,0,0,1,2.2-.9h42.3a4.1,4.1,0,0,1,2.6,1.3C107.7,33.5,109.4,36.6,111.3,39.9Z"/><path d="M37.1,135.2h2.5c.1.3.3.5.3.8,0,4.9.1,9.9-.1,14.8,0,.7-.9,1.5-1.4,2.3-.4-.8-1.3-1.5-1.3-2.2C37,145.8,37.1,140.7,37.1,135.2Z"/><path d="M60.1,135.3c2-.5,2.9-.2,2.8,1.8-.1,4.5.1,9.1-.1,13.6,0,.8-.8,1.6-1.3,2.4-.5-.8-1.3-1.6-1.4-2.4C60,145.6,60.1,140.5,60.1,135.3Z"/><path d="M106,135.2h2.9c0,5.4,0,10.7-.1,16,0,.6-.8,1.2-1.2,1.9s-1.5-1.3-1.6-1.9C105.9,145.9,106,140.6,106,135.2Z"/><path d="M129,135.1h2.8c0,5.4,0,10.7-.1,16,0,.6-.8,1.2-1.2,1.9s-1.4-1.4-1.4-2.1C129,145.8,129,140.6,129,135.1Z"/><path d="M84.2,134.7c.6.8,1.5,1.5,1.5,2.3.2,4.6.2,9.2.1,13.9-.1.7-.9,1.4-1.3,2.2s-1.3-1.4-1.4-2.1c-.1-5.2,0-10.4,0-15.6Z"/><path d="M80.9,25.7c0-4.7-.1-9.3,0-13.8.1-.7.9-1.4,1.4-2s1.2,1.3,1.2,1.9c.2,4.6.1,9.2.1,13.9Z"/><path d="M135.6,39.7c-2,.6-2.9.2-2.8-1.7s-.1-5,.1-7.5c0-.7,1-1.3,1.5-1.9s1.1,1.2,1.2,1.9C135.7,33.5,135.6,36.6,135.6,39.7Z"/><path d="M36.1,39.7c-2.1.7-2.9.2-2.8-1.7s-.1-4.9.1-7.3c0-.7.8-1.4,1.2-2.1s1.4,1.3,1.4,2C36.2,33.6,36.1,36.6,36.1,39.7Z"/><rect x="39.5" y="57.7" width="89.8" height="25.16"/><path d="M68.3,106.9a3.2,3.2,0,0,1-3.5,3.3,3.1,3.1,0,0,1-3.4-3.2c0-2.1,1.1-3.4,3.5-3.5S68.3,104.7,68.3,106.9Z"/><path d="M47.3,106.7a2.9,2.9,0,0,1-2.9,3.5c-2.6.1-3.9-1.2-3.9-3.3a3,3,0,0,1,3.2-3.4A3.1,3.1,0,0,1,47.3,106.7Z"/><path d="M89.2,107c-.3,2.1-1.4,3.3-3.6,3.2a3,3,0,0,1-3.2-3.3,3.1,3.1,0,0,1,3.4-3.4C88,103.6,89.1,104.8,89.2,107Z"/></svg>