<svg id="Capa_1" data-name="Capa 1" xmlns="http://www.w3.org/2000/svg" viewBox="0 0 165.2 157.8"><path d="M151.3,37.2V30.1c-.1-1.3-.8-2.2-1.9-2.2s-1.7.8-1.7,2.1v7.3h-5.1c0-.6-.1-1.2-.1-1.7V29.8c-.1-1.1-.7-1.9-1.7-1.8s-1.3.8-1.8,1.4-.1.8-.1,1.2v6.6l-2,.3c0,3.9-.1,7.8.1,11.7a4.8,4.8,0,0,0,3.8,4.4l2.3.4c0,.4.1.6.1.9-.1,13.1,0,26.2-.6,39.2-.4,9.9-6.3,16.4-15.9,18.7-6.1,1.6-12.2,1.3-18.4.4-2.7-.5-2.2-.3-2.2-2.7V11.3a3.4,3.4,0,0,0-2.7-3.1,7.5,7.5,0,0,0-2.1-.2H28.2a3.6,3.6,0,0,0-3.8,4,25.3,25.3,0,0,0-.1,2.8v130H20.6c-1.1-.1-1.6.3-1.5,1.4s.1,2.7,0,4.1.3,1.8,1.7,1.8h87.1c3.4,0,3.4,0,3.4-3.3s0-3.9-3.8-3.9c-1.1,0-1.5-.3-1.4-1.5V118a6.6,6.6,0,0,1,.1-1.4h1.2a55,55,0,0,0,16.2.4c5.9-.7,11.3-2.7,15.7-6.9s7.1-11.6,7.2-18.6c.3-12.1.2-24.3.3-36.4,0-.4.1-.8.1-1.2h.7c3.8-.3,5.7-2.3,5.7-6.1V37.5Zm-92,94-.4-.2c.7-8.4,1.4-16.8,2.1-25.4l-9.7,1.5c6.6-11.5,12.9-22.8,19.3-34h.3c-.9,7.6-1.9,15.3-3,23.3l11.9-2.2ZM97.6,49.9c0,3.6-2.2,5.8-5.8,5.8H39.4c-4,0-6.2-2.2-6.2-6.2V24.6c0-3.8,2.2-6.1,6-6.1H91.6c3.8,0,6,2.2,6,6C97.7,33,97.7,41.4,97.6,49.9Z"/></svg>