<svg id="Capa_1" data-name="Capa 1" xmlns="http://www.w3.org/2000/svg" viewBox="0 0 164.6 157.2"><path d="M154.5,85c-13.2,0-26.5.2-39.8-.1-5.8-.1-10.8,1.1-15.2,4.9l-.8.6-11.2,8V80.9l.7-.2h18.4q2.7,0,1.8-2.7c-.5-1.1-.9-2.3-1.4-3.4L91.7,35.2c-.5-1.5-1.4-2-3-2H48.9a1.7,1.7,0,0,0-1.8,2.5,14.3,14.3,0,0,0,.8,2.2c4.8,13.6,9.6,27.3,14.5,40.9.4,1.3,1,2.1,2.5,2,4.3,0,8.5.1,12.7,0,1.1,0,1.4.4,1.4,1.4-.1,4.9,0,9.7,0,14.5v1.7l-1.4-.9L64,87.8A14.2,14.2,0,0,0,55.8,85H11.5a5,5,0,0,0-5,4.8A5.1,5.1,0,0,0,11.1,95H13a6.2,6.2,0,0,1,.1,1.3c.1,5.1,3.2,8.1,8.2,8.1H47.9c4.8,0,7.9-3.1,8-7.9A9.2,9.2,0,0,1,56,95a11.3,11.3,0,0,1,6.1,2.3l15.6,11.4a2.9,2.9,0,0,1,1.3,2.6c-.1,11.3,0,22.6,0,33.9,0,.5-.2,1.1.1,1.4s1.1,1.3,1.6,1.2,1.2-.8,1.6-1.3,0-1,0-1.5V82.4c0-1.6.1-1.7,1.7-1.2v60.3c0,.5-.1,1.1.1,1.4a2.6,2.6,0,0,0,1.5,1.4c.9.3,1.5-.3,1.7-1.3a7.6,7.6,0,0,0,.1-1.5V111.1a2.9,2.9,0,0,1,.7-1.9l16.7-12.3a9.8,9.8,0,0,1,5.6-1.8,14.1,14.1,0,0,0,.1,2.1,7.4,7.4,0,0,0,7.3,7.3h28.1a7.4,7.4,0,0,0,7.3-7.3V95.1l2.5-.2a4.7,4.7,0,0,0,3.9-3.4C160.7,88.2,158.3,85,154.5,85ZM47.4,101.2H21.8c-4.1,0-5.6-1.8-5.2-6.1H52.3C53,99.1,51.3,101.2,47.4,101.2Zm31.4,4.2C74,101.9,69.3,98.5,64.7,95a16.3,16.3,0,0,0-10.2-3.4c-13.8.1-27.7,0-41.5,0H11.7a1.6,1.6,0,1,1,0-3.2h43a12.7,12.7,0,0,1,7.8,2.5c4.9,3.5,9.9,7.1,14.9,10.5A3.3,3.3,0,0,1,78.8,105.4Zm22-37.4c1.2,2.9,2.3,5.9,3.5,8.8v.6H96.5a1.3,1.3,0,0,1-.9-.7c-1.5-3.5-2.8-7-4.3-10.9h6.3C100.5,65.8,99.7,65.2,100.8,68ZM94.5,51.7c1.4,3.4,2.7,6.9,4.1,10.7h-8a1,1,0,0,1-.8-.6c-1.4-3.5-2.7-6.9-4.1-10.6,2.8,0,5.4-.1,7.9,0A1.3,1.3,0,0,1,94.5,51.7Zm-21-.6c2.8,0,5.4-.1,8,0a1,1,0,0,1,.8.6L86.2,62a.6.6,0,0,0-.1.4H78.4a1.6,1.6,0,0,1-.8-.5Zm.4,11a.8.8,0,0,1-.1.3H66.1a1,1,0,0,1-.8-.6l-4-10.6c2.8,0,5.4-.1,7.9,0a1.1,1.1,0,0,1,.9.6C71.4,55.1,72.6,58.6,73.9,62.1Zm14-25.5c.3,0,.8.2.8.4,1.4,3.5,2.8,7,4.2,10.7H85.1a1.3,1.3,0,0,1-.9-.7c-1.4-3.3-2.6-6.7-4-10.3Zm-11.8,0a1,1,0,0,1,.7.6l4,10.5H73a1.2,1.2,0,0,1-1-.6c-1.3-3.4-2.5-6.8-3.9-10.4Zm-12.2,0a1.2,1.2,0,0,1,.8.6c1.3,3.3,2.5,6.6,3.7,9.9.1.1,0,.3,0,.6H60.7c-.2,0-.7-.2-.7-.4-1.3-3.5-2.6-6.9-3.9-10.6Zm1.3,39.8L51.3,37.3l-.2-.5a1.1,1.1,0,0,1,1.7.7C57,49,61.1,60.5,65.3,71.9l1.9,5.3C66.1,77.5,65.6,77.4,65.2,76.4Zm6.6.9a1.1,1.1,0,0,1-.9-.5c-1.4-3.6-2.8-7.2-4.2-11h8.1a.8.8,0,0,1,.7.4c1.4,3.7,2.8,7.3,4.2,11.2Zm14.5,0c-1-.1-2.3.2-3-.3s-.8-1.8-1.1-2.7c-1-2.8-2.1-5.5-3.2-8.6h6c2.7,0,2.7,0,3.6,2.5s2.2,5.9,3.5,9.2H86.3Zm58.5,23.9H119.2c-4.1,0-5.7-1.8-5.2-6.1h35.7C150.3,99.1,148.6,101.1,144.8,101.2Zm11.6-11.1c-.1,1.4-1.1,1.5-2.3,1.5-14.1,0-28.2.1-42.2,0A16.6,16.6,0,0,0,101.6,95l-14,10.4a3.2,3.2,0,0,1,1.4-4c5.1-3.5,10.1-7.2,15.2-10.8a11.7,11.7,0,0,1,6.7-2.2h43.3C155.7,88.4,156.5,89,156.4,90.1Z"/><path d="M122.6,19.8a8.6,8.6,0,1,0,8.5,8.6A8.6,8.6,0,0,0,122.6,19.8Zm-.1,13.7a5.3,5.3,0,0,1-5.1-5.1,5.1,5.1,0,0,1,5.1-5.2,5.2,5.2,0,0,1,5.2,5.1A5.3,5.3,0,0,1,122.5,33.5Z"/><path d="M18,107.7c.3.3,1,.5,1.2.9a2.3,2.3,0,0,1,0,1.8c-2.2,2.3-4.5,4.7-6.9,6.9a2.1,2.1,0,0,1-2-.2c-.4-.4-.6-1.7-.2-2,2.2-2.4,4.5-4.7,6.9-7C17.1,107.9,17.5,107.9,18,107.7Z"/><path d="M32.8,116.5v-4.2c.1-1.3.8-2.1,1.8-2s1.6.9,1.6,2v8.5c0,1.1-.5,1.9-1.7,1.9s-1.7-.8-1.7-1.9Z"/><path d="M133.5,116.6v4.2c0,1.1-.5,1.9-1.6,1.9a1.7,1.7,0,0,1-1.8-1.9v-8.7c.1-1.1.6-1.8,1.8-1.8s1.6.7,1.6,1.8Z"/><path d="M59.5,116.1c-.4.5-.7,1.1-1.2,1.3s-1.4.2-1.7-.2c-2.3-2.1-4.6-4.4-6.7-6.7a2.3,2.3,0,0,1,.2-2.1,2.2,2.2,0,0,1,2.2-.1c2.2,2.1,4.4,4.3,6.5,6.5A5,5,0,0,1,59.5,116.1Z"/><path d="M106.8,116.1a14.6,14.6,0,0,1,.9-1.5l6-6c.9-.9,1.8-1.1,2.7-.2a1.6,1.6,0,0,1-.3,2.5c-2,2-3.9,4.1-6,6a3,3,0,0,1-2.1.5C107.6,117.3,107.3,116.6,106.8,116.1Z"/><path d="M146.7,109.4c.3-.5.6-1.1,1.1-1.3a2,2,0,0,1,1.7.1l6.8,6.7a1.5,1.5,0,0,1-.2,2.2,2.7,2.7,0,0,1-2.1.2c-2.3-2.2-4.6-4.5-6.8-6.8A3.8,3.8,0,0,1,146.7,109.4Z"/><path d="M124.3,43.1a20.1,20.1,0,0,1-.1,2.5,1.6,1.6,0,0,1-1.7,1.7c-1.1,0-1.6-.7-1.6-1.8a35.3,35.3,0,0,1,0-4.6c0-1.1.5-1.9,1.7-1.9s1.6.9,1.7,2v2.1Z"/><path d="M108.6,16.2c.1-1.4,1.5-2.3,2.5-1.5a26.5,26.5,0,0,1,4.1,4.1,1.9,1.9,0,0,1-.3,1.9,1.9,1.9,0,0,1-1.9.3c-1.5-1.3-2.8-2.7-4.2-4.1S108.7,16.3,108.6,16.2Z"/><path d="M136.5,15.7c0,1.5-4.2,5.7-5.2,5.5a2.3,2.3,0,0,1-1.4-.9,1.7,1.7,0,0,1,.1-1.7,45.4,45.4,0,0,1,3.8-3.8,2,2,0,0,1,1.7-.2C136,14.8,136.3,15.5,136.5,15.7Z"/><path d="M137.3,30a6.4,6.4,0,0,1-2.4-.1,2.6,2.6,0,0,1-1.6-1.5,1.4,1.4,0,0,1,1.5-1.7H140a1.6,1.6,0,0,1,1.6,1.7,1.6,1.6,0,0,1-1.7,1.6Z"/><path d="M107.7,30a7.5,7.5,0,0,1-2.6-.1c-.6-.2-1.4-1-1.4-1.5s.8-1.6,1.3-1.7a19.5,19.5,0,0,1,5.4.1c.6,0,1.4,1.1,1.3,1.6s-.8,1.3-1.4,1.5A7.5,7.5,0,0,1,107.7,30Z"/><path d="M120.9,13.4a19.2,19.2,0,0,1,0-2.4,1.7,1.7,0,0,1,3.3-.1,43.4,43.4,0,0,1,0,5.1,1.5,1.5,0,0,1-1.6,1.6,1.6,1.6,0,0,1-1.7-1.7A20.8,20.8,0,0,1,120.9,13.4Z"/><path d="M135.1,42.3h-.5c-1.7-1.6-3.3-3.2-4.9-5-.2-.1.3-1.2.7-1.5a2.5,2.5,0,0,1,1.9.1,34.1,34.1,0,0,1,3.8,3.8,2,2,0,0,1,.1,1.7C136,41.8,135.4,42.1,135.1,42.3Z"/><path d="M110.1,42.3c-.3-.2-1-.5-1.2-1a2,2,0,0,1,.1-1.7,35,35,0,0,1,3.9-3.8,2.4,2.4,0,0,1,2,.1,2.2,2.2,0,0,1,.4,1.9c-1.3,1.5-2.8,2.9-4.2,4.3Z"/></svg>