<svg id="Capa_1" data-name="Capa 1" xmlns="http://www.w3.org/2000/svg" viewBox="0 0 164.2 164.9"><path d="M146,68.5H110a.8.8,0,0,1-.1-.4V60a1.1,1.1,0,0,1,.3-.8L121,44.1c5.9-8.2,11.7-16.4,17.6-24.5a2.8,2.8,0,0,0,.3-2.9,2.6,2.6,0,0,0-2.5-1.4H116.1a2.8,2.8,0,0,0-2.5,1.3L93.7,44.3a1.7,1.7,0,0,1-1.6.9c-7-.1-14.1-.1-21.1,0a2,2,0,0,1-1.7-.9L49.5,16.6a3,3,0,0,0-2.6-1.3H26.7A2.5,2.5,0,0,0,24,17.1a2.9,2.9,0,0,0,.6,2.7q13.9,19.5,28,38.9a5.1,5.1,0,0,1,1.1,3.5c-.1,2.1,0,4.1,0,6.3H17.2c-1.9,0-2.9,1-2.9,3V94.1c0,2,1,3,2.9,3H28.3a2.6,2.6,0,1,0,0-5.2H19.5V73.8H73.9V91.9H38.7a2.6,2.6,0,0,0-2.3,2.2c-.3,1.7.9,3,2.8,3H53.1a1.5,1.5,0,0,1,.1.6v7.8a2.1,2.1,0,0,1-.4,1.1L24.6,145.9a2.6,2.6,0,0,0,2.2,4.4H46.6a3.6,3.6,0,0,0,3.1-1.5l19.7-27.6a1.6,1.6,0,0,1,1.4-.7H92a1.9,1.9,0,0,1,1.8.9l19.7,27.5a3.2,3.2,0,0,0,2.9,1.4h19.8a2.8,2.8,0,0,0,2.7-1.4,2.7,2.7,0,0,0-.4-3.1c-1-1.3-2-2.6-2.9-4L110,106.2a3.5,3.5,0,0,1-.7-2c.1-2,.1-4.1.1-6.2v-.9h36.7c2.3,0,3.2-.9,3.2-3.2V71.8C149.3,69.4,148.4,68.5,146,68.5ZM102.7,40.7l14-19.5a1.4,1.4,0,0,1,1.3-.7h13.5L107.6,53.8l-8.3-8.3ZM31.6,20.6H45.1a1.2,1.2,0,0,1,1.2.6l17.2,24a6.1,6.1,0,0,1,.4.6L55.6,54ZM58.9,68.5V59.1a1.8,1.8,0,0,1,.6-1.4l6.8-6.8a2.4,2.4,0,0,1,1.3-.5c9.5-.1,18.9-.1,28.4,0a2.5,2.5,0,0,1,1.2.4l7,7.1a1.5,1.5,0,0,1,.4.9v9.7Zm25.4,5.3v18h-5v-18ZM56.8,129.9,46.3,144.5a1.5,1.5,0,0,1-1.1.6H31.6l23.8-33.2,8.3,8.4Zm38.6-14.6H67.2a1.8,1.8,0,0,1-1.4-.6c-2.3-2.3-4.6-4.5-6.8-6.9a1.8,1.8,0,0,1-.5-1.2c-.1-2.9-.1-5.8-.1-8.6v-.9h45.7V98c0,2.8.1,5.7,0,8.6a1.8,1.8,0,0,1-.5,1.2l-6.8,6.9A1.8,1.8,0,0,1,95.4,115.3Zm36.1,29.8H118a1.4,1.4,0,0,1-1.1-.5L99.3,120.2c-.1-.1-.1-.3-.2-.3l8.4-8.3ZM144,91.9H89.6V73.8H144Z"/><path d="M99.9,58a2.7,2.7,0,0,1-2.6,2.6A2.6,2.6,0,0,1,94.7,58a2.6,2.6,0,1,1,5.2,0Z"/><path d="M73.5,65.2a2.6,2.6,0,0,1-2.7,2.4,2.6,2.6,0,1,1,.2-5.1A2.7,2.7,0,0,1,73.5,65.2Z"/><path d="M68.4,58a2.5,2.5,0,0,1-2.7,2.5,2.6,2.6,0,0,1,0-5.1A2.5,2.5,0,0,1,68.4,58Z"/><path d="M94.8,65a2.6,2.6,0,1,1-2.6-2.5A2.5,2.5,0,0,1,94.8,65Z"/><path d="M73.5,100.5a2.7,2.7,0,0,1-2.6,2.7,2.6,2.6,0,0,1-2.6-2.7,2.6,2.6,0,0,1,5.2,0Z"/><path d="M94.8,100.6a2.6,2.6,0,0,1-2.6,2.6,2.6,2.6,0,0,1-2.6-2.7A2.6,2.6,0,0,1,92.2,98,2.6,2.6,0,0,1,94.8,100.6Z"/><path d="M99.9,107.7a2.7,2.7,0,0,1-2.7,2.6,2.6,2.6,0,0,1,0-5.2A2.6,2.6,0,0,1,99.9,107.7Z"/><path d="M68.4,107.7a2.7,2.7,0,0,1-2.7,2.6,2.6,2.6,0,0,1-2.5-2.6,2.6,2.6,0,1,1,5.2,0Z"/></svg>