<svg id="Capa_1" data-name="Capa 1" xmlns="http://www.w3.org/2000/svg" viewBox="0 0 146.2 148.7"><path d="M36.7,71.2A24.5,24.5,0,0,0,52.3,81.7l.5-1.2c1.8-5.2,3.8-10.4,5.6-15.7.3-.8.7-1,1.6-1H77.6c4.8,0,4.8,0,5.1-4.8a25.2,25.2,0,1,0-46,12.2Z" transform="translate(-9.9 -9.9)"/><path d="M64.6,141.2c3.2-8.9,6.4-17.8,9.7-26.7l2.2-6.3H50.3c-.9,0-1.1.4-1.3,1l-6.9,19Q39.7,135,37,142.2H63.3C64.2,142.3,64.3,141.8,64.6,141.2Z" transform="translate(-9.9 -9.9)"/><path d="M69.7,142.2H71c8.2,0,16.4-.1,24.6,0a1.5,1.5,0,0,0,1.7-1.2c3.7-10.3,7.4-20.6,11.2-30.9l.7-2.1H83.3a1.5,1.5,0,0,0-1.7,1.2L70.8,139.1C70.4,140.1,70.1,141.1,69.7,142.2Z" transform="translate(-9.9 -9.9)"/><path d="M115.9,108.1a1.4,1.4,0,0,0-1.6,1.1c-3.9,10.6-7.7,21.3-11.6,31.9a10.4,10.4,0,0,0-.3,1.2h1.1c8.3,0,16.6-.1,25,0,.9,0,1.2-.4,1.4-1.2l11.6-31.8.3-1.2H115.9Z" transform="translate(-9.9 -9.9)"/><path d="M95.9,69.9C93.3,77,90.8,84,88.2,91l-4.3,12h25.7c1.1,0,1.6-.2,2-1.3L123,70.1a7.6,7.6,0,0,1,.4-1.1H97.1C96.3,68.8,96.1,69.3,95.9,69.9Z" transform="translate(-9.9 -9.9)"/><path d="M90.3,70.2a5,5,0,0,0,.4-1.3H64.8c-1,0-1.3.4-1.6,1.2-3.9,10.6-7.7,21.2-11.5,31.8a7.3,7.3,0,0,0-.5,1.2h26a1.5,1.5,0,0,0,1.7-1.2Z" transform="translate(-9.9 -9.9)"/><path d="M155.2,68.9H129.8c-.9,0-1,.5-1.3,1.1-3.8,10.7-7.7,21.4-11.6,32l-.3,1h26.3c.9,0,1-.5,1.3-1.1l10.2-28.2c.5-1.5,1.1-3.1,1.7-4.7Z" transform="translate(-9.9 -9.9)"/><path d="M93.4,145.7H81.3v6.5H60.8v6.4h53.1v-6.5H93.4Z" transform="translate(-9.9 -9.9)"/><path d="M82.3,37.8a6.5,6.5,0,0,0,2.1-1c2.6-2.5,5-5,7.4-7.5a4.2,4.2,0,0,0-5.9-5.8c-2.6,2.4-5,4.9-7.4,7.5a3.8,3.8,0,0,0-.5,4.4C78.8,36.9,80.1,37.7,82.3,37.8Z" transform="translate(-9.9 -9.9)"/><path d="M27.8,57.2a4,4,0,0,0-4.3-4.1q-4.7-.1-9.3,0a4.1,4.1,0,0,0-4.3,4.1,4.2,4.2,0,0,0,4.2,4.3h9.4A4.1,4.1,0,0,0,27.8,57.2Z" transform="translate(-9.9 -9.9)"/><path d="M57.7,27.9a4.1,4.1,0,0,0,4-4.3c.1-1.6,0-3.1,0-4.6s.1-3.2,0-4.8a4,4,0,0,0-4-4.3A4.1,4.1,0,0,0,53.3,14v9.7A4.2,4.2,0,0,0,57.7,27.9Z" transform="translate(-9.9 -9.9)"/><path d="M30.3,36.6a4.1,4.1,0,0,0,5.8-.1,4,4,0,0,0,.1-5.9c-2.2-2.3-4.4-4.6-6.7-6.8a8.3,8.3,0,0,0-2.4-1.3c-2.4.1-3.7.8-4.4,2.4a3.8,3.8,0,0,0,.7,4.6C25.6,31.9,28,34.3,30.3,36.6Z" transform="translate(-9.9 -9.9)"/><path d="M87.2,57.3a4.2,4.2,0,0,0,4.2,4.2H101a4.2,4.2,0,0,0,4.2-4.2,4.1,4.1,0,0,0-4.2-4.1c-1.6-.1-3.1,0-4.7,0s-3.3-.1-4.9,0A4.1,4.1,0,0,0,87.2,57.3Z" transform="translate(-9.9 -9.9)"/><path d="M36.6,78.3a4.2,4.2,0,0,0-5.8-.2c-2.4,2.4-4.8,4.8-7.2,7.4a3.6,3.6,0,0,0-.5,4.4c.7,1.6,2,2.3,4.3,2.4a5.6,5.6,0,0,0,2.2-1.1c2.5-2.3,4.8-4.7,7.1-7.1A4.2,4.2,0,0,0,36.6,78.3Z" transform="translate(-9.9 -9.9)"/></svg>