<svg id="Capa_1" data-name="Capa 1" xmlns="http://www.w3.org/2000/svg" viewBox="0 0 111.4 99.4"><path d="M57.4,77.1,52.9,50.9A2.7,2.7,0,0,0,50,48.5H11.5a2.8,2.8,0,0,0-3,2.6C7.2,59,5.8,66.9,4.5,74.9c-.1.8-.3,1.5-.4,2.3s.8,3.4,3,3.4H54.4C56.6,80.6,57.7,79.3,57.4,77.1ZM25.3,57.6c.1-1,.2-2.1.4-3.1s.3-.6.5-.6h9.6c.3,2.6.5,5.3.8,8H24.9C25.1,60.4,25.2,59,25.3,57.6ZM19.5,75.2H10c.1-1,.3-2,.5-3s.6-3.8,1-5.7c0-.2.3-.6.5-.6h8.4Zm1.3-13.3H12.2c.4-2.2.7-4.3,1.1-6.4s.3-1.6,1.9-1.6h6.4C21.3,56.6,21.1,59.2,20.8,61.9Zm2.8,13.3.9-9.2H37c.3,3,.6,6.1,1,9.2ZM39.9,54h7.4c.4,0,.7,0,.7.5l1.2,7.2v.3H40.7C40.4,59.2,40.2,56.6,39.9,54Zm2.2,21.2c-.4-3.1-.7-6.1-1-9.3h8.5c.1,0,.4.2.4.4.5,2.9,1,5.9,1.6,8.9Z"/><path d="M105.2,68.8h-2.5v-3c0-1.2-.4-1.6-1.5-1.6H95.8c-1.2,0-1.6.4-1.6,1.6v2.9H84.1V65.8c-.1-1.2-.5-1.6-1.6-1.6H77c-1.1,0-1.5.4-1.5,1.5v3.1H73.1c-1.2,0-1.7.4-1.7,1.6V89.7A1.4,1.4,0,0,0,73,91.3h32.2a1.4,1.4,0,0,0,1.6-1.6V70.4C106.8,69.2,106.3,68.8,105.2,68.8ZM84.9,78.4a.8.8,0,0,1-1,.9H76.1c-1.3,0-1.4-.1-1.4-1.3v-.5a.8.8,0,0,1,.9-.9h8.3a.9.9,0,0,1,1,.9A2.7,2.7,0,0,0,84.9,78.4Zm18.6,0c0,.6-.3,1-.9.9H99.8V82c.1.7-.2,1.1-1,1H98a.8.8,0,0,1-.9-.9V79.3H94.5c-.8,0-1.2-.4-1.1-1.1v-.6c0-.9.2-1.1,1.1-1.1h2.6V73.9c0-.7.3-1,1-1h.6c.9,0,1.1.2,1.1,1.1v2.6h2.6c.9,0,1.1.2,1.1,1.1Z"/><path d="M44.6,19.1l-2.8-1.9c-.4-.2-.5-.5-.4-1s.5-2.3.7-3.4a2.4,2.4,0,0,0-3-2.9l-3.3.7c-.5.1-.8,0-1-.4L32.9,7.3a2.4,2.4,0,0,0-4.2,0c-.7,1-1.3,2-2,2.9a1,1,0,0,1-.9.3,30.3,30.3,0,0,1-3.2-.6c-2.2-.4-3.5.9-3.1,3.1s.3,2,.6,3a1.1,1.1,0,0,1-.5,1.3l-2.8,1.9a2.4,2.4,0,0,0,0,4.1l2.9,1.9a.8.8,0,0,1,.4,1l-.6,3.2c-.4,2.1.9,3.5,3,3.1a28.4,28.4,0,0,0,3.1-.6,1,1,0,0,1,1.3.6c.5.9,1.2,1.8,1.8,2.7a2.4,2.4,0,0,0,4.1,0,29,29,0,0,0,1.9-2.9.8.8,0,0,1,1-.4l3.8.7a2.4,2.4,0,0,0,2.6-2.7c-.2-1.3-.4-2.5-.7-3.7a.7.7,0,0,1,.4-.9l2.8-2C46.3,22.2,46.3,20.3,44.6,19.1Zm-2.9,2.8-2.5,1.7c-1.1.7-1,.7-.8,2s.5,2.6.8,4.1l-4.5-.9a1.2,1.2,0,0,0-1.4.5l-2.5,3.9c-1-1.4-1.8-2.6-2.6-3.9s-.7-.7-1.3-.5l-4.6.9c.3-1.5.5-2.8.8-4.1s.3-1.3-.8-2l-3.5-2.4,4-2.6c.4-.3.6-.6.4-1.1l-.9-4.7,4.3.8a1.2,1.2,0,0,0,1.7-.7l2.5-3.6c.9,1.3,1.8,2.6,2.6,3.9a1,1,0,0,0,1.2.5l4.6-.9c-.3,1.4-.5,2.6-.8,3.9s-.2,1.5,1,2.3l3.3,2.2Z"/><path d="M25.4,86V83.3H36.1V86h3.7c1.2,0,1.6.4,1.6,1.6v1.9c0,1.4-.4,1.8-1.7,1.8H22c-1.6,0-1.9-.4-1.9-1.9v-2A1.3,1.3,0,0,1,21.5,86Z"/><path d="M90.8,32c.3-.8.5-1.6.8-2.3a46.7,46.7,0,0,1,3-4.3,6.8,6.8,0,0,0,.1-8.7,7.4,7.4,0,0,0-9.3-1.6,6.6,6.6,0,0,0-3,8,7.5,7.5,0,0,0,1.5,2.4A18.4,18.4,0,0,1,87,30.7c.2.4.2.8.4,1.3A19.1,19.1,0,0,1,85,32c-.2,0-.4-.3-.5-.5a31.2,31.2,0,0,0-2.7-4.3c-2.4-2.9-3.1-6-1.8-9.5a9.2,9.2,0,0,1,7.9-6.1,9.6,9.6,0,0,1,10.8,7.8A8.8,8.8,0,0,1,96.6,27c-1.1,1.4-1.9,3-2.9,4.5a.9.9,0,0,1-.7.5A16.1,16.1,0,0,1,90.8,32Z"/><path d="M84.8,33.8h8.6c.7,2-.3,3.4-1.5,4.8s-.6.2-.9.3H87.2a1.5,1.5,0,0,1-1-.4C85,37.1,84.2,35.7,84.8,33.8Z"/><path d="M89.9,53.9V64.7c0,.2.1.5,0,.7s-.5.7-.7.7-.6-.4-.9-.7,0-.3,0-.5V42.8c0-.2-.1-.4,0-.5s.6-.7.8-.7a1.4,1.4,0,0,1,.8.7,5.7,5.7,0,0,1,0,1.3Z"/><path d="M56.4,89.1H45.2c-.5,0-1-.1-1-.8s.4-.8,1-.8H67.6c.5,0,1,.1,1.1.7s-.3.9-1,.9H56.4Z"/><path d="M41.3,35.8c.2-.2.3-.5.6-.6a1.1,1.1,0,0,1,.9.2c.1,0,.2.3.3.5l3.4,7.2.2.3c.2.5.1,1-.4,1.1a1.5,1.5,0,0,1-1.1-.4c-1.3-2.6-2.5-5.2-3.7-7.8C41.4,36.2,41.4,36.1,41.3,35.8Z"/><path d="M20.2,35.8a3.4,3.4,0,0,1-.3.8c-1.2,2.4-2.3,4.9-3.5,7.3a2,2,0,0,1-.9.7c-.6.1-.9-.6-.7-1.2l3.8-7.8c.1-.3.7-.4,1-.4S20,35.6,20.2,35.8Z"/><path d="M83.8,20.7A5.3,5.3,0,0,1,89,15.8a.9.9,0,0,1,1,.8c0,.6-.4.8-.9.9-2.3.3-3.2,1.2-3.5,3.4a1,1,0,0,1-1,.9C84,21.7,83.8,21.3,83.8,20.7Z"/><path d="M31.6,42.2v2.2c0,.5-.2,1-.9,1s-.8-.4-.8-1V39.9a.8.8,0,0,1,.9-.9c.6,0,.8.4.8,1Z"/><path d="M97.4,13.3c-.2-.2-.5-.3-.6-.5a.9.9,0,0,1,.1-.9c.9-.9,1.8-1.9,2.8-2.8a1.4,1.4,0,0,1,1.1.1c.1.2.2.8,0,1A37,37,0,0,1,98,13C97.9,13.2,97.7,13.2,97.4,13.3Z"/><path d="M102.9,20h1.8a.8.8,0,0,1,.9.8c0,.6-.4.8-.9.8H101c-.5,0-.9-.3-.8-.8a1.4,1.4,0,0,1,.9-.8,10.8,10.8,0,0,1,1.8,0Z"/><path d="M89.9,7a12,12,0,0,1,0,1.9c-.1.3-.5.6-.8.9s-.7-.6-.8-.9a24.1,24.1,0,0,1,0-3.8c.1-.2.6-.5.8-.8s.7.6.8.9A10.8,10.8,0,0,1,89.9,7Z"/><path d="M75.4,20h1.8a.8.8,0,0,1,0,1.6H73.4c-.3,0-.5-.5-.8-.8s.6-.7.9-.8A12,12,0,0,1,75.4,20Z"/><path d="M80.8,13.3l-.8-.5-2.4-2.3c-.4-.4-.6-.9-.1-1.4s.9-.2,1.3.2l2.4,2.5a1.2,1.2,0,0,1,.2,1C81.4,13,81,13.1,80.8,13.3Z"/><path d="M30.8,15.1a6.1,6.1,0,0,0-6.2,6.1,6.2,6.2,0,0,0,6.2,6.2,6.1,6.1,0,0,0,6.1-6.1A6.2,6.2,0,0,0,30.8,15.1Zm0,9.5a3.5,3.5,0,0,1-3.4-3.3,3.4,3.4,0,1,1,6.7,0A3.3,3.3,0,0,1,30.8,24.6Z"/></svg>